<svg class="icon" viewBox="0 0 1024 1024" xmlns="http://www.w3.org/2000/svg" width="200" height="200"><defs><style/></defs><path d="M426.667 512c0-23.33 8.243-43.52 24.746-60.587C468.48 434.91 488.67 426.667 512 426.667c23.313 0 43.23 8.243 59.733 24.746 17.067 17.067 25.6 37.257 25.6 60.587 0 23.313-8.533 43.23-25.6 59.733-16.503 17.067-36.42 25.6-59.733 25.6-23.33 0-43.52-8.533-60.587-25.6-16.503-16.503-24.746-36.42-24.746-59.733z" fill="#2c2c2c"/><path d="M512 955.733c-54.647 0-100.745-45.807-137.011-136.14a549.205 549.205 0 0 1-15.616-44.05c-15.446 3.465-30.669 6.315-45.415 8.483-96.443 14.25-158.532-2.663-186.197-50.108-27.068-47.53-10.53-110.183 49.084-186.368a492.22 492.22 0 0 1 30.122-35.09 961.417 961.417 0 0 1-29.917-34.935C116.6 400.47 100.096 337.46 127.76 290.048c27.034-46.83 89.088-63.693 186.06-50.125 14.832 2.185 30.072 5.035 45.518 8.5 4.693-15.36 9.915-30.362 15.599-44.784C411.29 113.783 457.387 68.267 512 68.267c54.665 0 100.489 45.534 136.175 135.355 5.615 14.217 10.974 29.133 15.991 44.493 15.31-3.806 30.72-6.826 45.944-8.994 97.297-13.653 159.147 3.601 186.214 51.115 27.58 47.326 11.025 109.79-49.288 185.48a760.303 760.303 0 0 1-30.072 35.909 518.775 518.775 0 0 1 30.96 35.942c59.084 76.936 75.297 139.571 48.298 186.317-27.665 47.462-89.378 64.614-185.293 51.03-15.36-2.203-31.215-5.104-47.292-8.62a574.182 574.182 0 0 1-15.547 43.367C612.523 909.892 566.699 955.733 512 955.733zm-119.484-188.57c4.301 13.825 9.029 27.103 14.131 39.647C437.231 882.995 472.661 921.6 512 921.6c39.287 0 74.41-38.57 104.397-114.637a532.48 532.48 0 0 0 14.063-38.946c-38.759-10.82-78.814-25.702-119.416-44.39-40.465 18.193-80.23 32.785-118.528 43.537zm280.61-23.739c14.524 3.14 28.809 5.7 42.633 7.68 79.599 11.281 131.123-.341 150.955-34.372 19.404-33.57 4.027-83.49-45.722-148.258a500.531 500.531 0 0 0-27.665-32.205c-29.065 28.143-62.157 55.484-98.628 81.527-4.199 44.68-11.435 86.818-21.573 125.628zM230.554 537.242a449.929 449.929 0 0 0-26.795 31.334c-50.278 64.256-65.894 114.142-46.421 148.31 19.695 33.791 71.44 45.192 151.637 33.382a581.87 581.87 0 0 0 41.199-7.646c-9.694-38.28-16.691-79.855-20.856-123.887-36.949-26.044-70.075-53.385-98.764-81.493zm320.836 166.86a740.71 740.71 0 0 0 88.61 31.13 729.617 729.617 0 0 0 17.562-92.16 1054.208 1054.208 0 0 1-51.798 31.403 1226.155 1226.155 0 0 1-54.374 29.627zm-184.952-60.194c4.028 31.83 9.677 62.089 16.845 90.402a791.262 791.262 0 0 0 87.296-30.395 1153.16 1153.16 0 0 1-52.463-28.672 1060.3 1060.3 0 0 1-51.678-31.335zm-4.522-44.066a1002.445 1002.445 0 0 0 73.199 45.807 1092.523 1092.523 0 0 0 76.049 40.312 1159.68 1159.68 0 0 0 77.653-41.114 992.853 992.853 0 0 0 73.301-45.858A1053.696 1053.696 0 0 0 665.6 512c0-30.02-.939-58.965-2.782-86.135a1351.902 1351.902 0 0 0-74.137-46.78A1235.866 1235.866 0 0 0 512 338.893a1224.892 1224.892 0 0 0-76.885 40.311 856.951 856.951 0 0 0-73.216 46.524A1020.57 1020.57 0 0 0 358.4 512c0 30.14 1.178 59.63 3.516 87.842zm-107.47-86.989a731.682 731.682 0 0 0 71.476 61.15 1152.939 1152.939 0 0 1-.051-122.265 736.427 736.427 0 0 0-71.424 61.115zm443.99-61.371c.87 19.54 1.297 39.782 1.297 60.518 0 20.753-.546 41.114-1.621 60.894A804.59 804.59 0 0 0 769.365 512a778.803 778.803 0 0 0-70.929-60.518zm-444.825-182c-49.46 0-81.87 12.698-96.325 37.718-19.95 34.202-4.317 84.326 46.439 149.043a919.245 919.245 0 0 0 27.221 31.847c28.638-28.007 61.628-55.211 98.355-81.101 4.165-44.63 11.196-86.767 20.924-125.61a583.168 583.168 0 0 0-41.25-7.647 404.89 404.89 0 0 0-55.364-4.25zm441.856 137.49a838.997 838.997 0 0 1 97.45 80.333 742.366 742.366 0 0 0 27.375-32.768c50.722-63.66 66.338-113.187 46.473-147.269-19.44-34.116-71.185-45.653-151.842-34.355-13.637 1.946-27.444 4.642-41.216 8.021 9.813 38.878 17.135 81.17 21.76 126.038zm-143.173-86.255a1299.831 1299.831 0 0 1 53.47 28.825 1413.29 1413.29 0 0 1 52.344 32.273 820.087 820.087 0 0 0-17.425-92.16 742.059 742.059 0 0 0-88.389 31.062zm-168.96-31.044a778.957 778.957 0 0 0-16.896 91.58 916.412 916.412 0 0 1 51.78-31.71 1296.64 1296.64 0 0 1 53.47-28.826 736.341 736.341 0 0 0-88.354-31.044zm9.165-32.888c38.793 10.82 78.882 25.702 119.501 44.39 40.482-18.62 80.435-33.467 119.108-44.288a756.975 756.975 0 0 0-14.66-40.704C586.445 140.698 551.305 102.4 512 102.4c-39.339 0-74.786 38.332-105.353 113.92-5.102 12.97-9.847 26.539-14.148 40.465z" fill="#2c2c2c"/></svg>