<?xml version="1.0" standalone="no"?><!DOCTYPE svg PUBLIC "-//W3C//DTD SVG 1.1//EN" "http://www.w3.org/Graphics/SVG/1.1/DTD/svg11.dtd"><svg t="1556523971658" class="icon" style="" viewBox="0 0 1024 1024" version="1.1" xmlns="http://www.w3.org/2000/svg" p-id="765" xmlns:xlink="http://www.w3.org/1999/xlink" width="200" height="200"><defs><style type="text/css"></style></defs><path d="M426.666667 512c0-23.330133 8.2432-43.52 24.746666-60.586667 17.066667-16.503467 37.256533-24.746667 60.586667-24.746666 23.313067 0 43.229867 8.2432 59.733333 24.746666 17.066667 17.066667 25.6 37.256533 25.6 60.586667 0 23.313067-8.533333 43.229867-25.6 59.733333-16.503467 17.066667-36.420267 25.6-59.733333 25.6-23.330133 0-43.52-8.533333-60.586667-25.6-16.503467-16.503467-24.746667-36.420267-24.746666-59.733333z" p-id="766" fill="#2c2c2c"></path><path d="M512 955.733333c-54.647467 0-100.744533-45.806933-137.0112-136.1408a549.205333 549.205333 0 0 1-15.616-44.049066c-15.445333 3.464533-30.6688 6.314667-45.4144 8.482133-96.443733 14.250667-158.532267-2.6624-186.197333-50.107733-27.067733-47.530667-10.530133-110.1824 49.083733-186.368a492.219733 492.219733 0 0 1 30.122667-35.089067 961.416533 961.416533 0 0 1-29.917867-34.935467c-60.450133-77.056-76.9536-140.066133-49.288533-187.477333 27.0336-46.830933 89.088-63.6928 186.0608-50.1248 14.830933 2.184533 30.071467 5.034667 45.5168 8.4992 4.693333-15.36 9.915733-30.3616 15.598933-44.782933C411.2896 113.783467 457.386667 68.266667 512 68.266667c54.664533 0 100.488533 45.533867 136.174933 135.355733 5.614933 14.216533 10.973867 29.1328 15.991467 44.4928 15.3088-3.805867 30.72-6.826667 45.943467-8.994133 97.297067-13.653333 159.146667 3.601067 186.2144 51.114666 27.579733 47.325867 11.025067 109.789867-49.288534 185.480534a760.302933 760.302933 0 0 1-30.071466 35.908266 518.775467 518.775467 0 0 1 30.958933 35.9424c59.0848 76.936533 75.298133 139.5712 48.298667 186.3168-27.665067 47.4624-89.378133 64.6144-185.2928 51.029334-15.36-2.2016-31.214933-5.102933-47.291734-8.618667-4.676267 14.882133-9.898667 29.422933-15.547733 43.3664C612.522667 909.892267 566.698667 955.733333 512 955.733333z m-119.483733-188.5696c4.3008 13.824 9.028267 27.101867 14.1312 39.645867C437.230933 882.9952 472.661333 921.6 512 921.6c39.287467 0 74.410667-38.570667 104.3968-114.6368a532.48 532.48 0 0 0 14.062933-38.946133c-38.7584-10.820267-78.813867-25.7024-119.415466-44.3904-40.465067 18.193067-80.2304 32.785067-118.528 43.537066z m280.610133-23.739733c14.523733 3.140267 28.808533 5.700267 42.632533 7.68 79.598933 11.281067 131.1232-0.341333 150.954667-34.372267 19.4048-33.570133 4.027733-83.490133-45.7216-148.258133a500.5312 500.5312 0 0 0-27.665067-32.2048c-29.064533 28.142933-62.1568 55.483733-98.628266 81.527467-4.1984 44.680533-11.434667 86.818133-21.572267 125.627733zM230.5536 537.2416a449.928533 449.928533 0 0 0-26.794667 31.3344c-50.2784 64.256-65.8944 114.141867-46.421333 148.309333 19.694933 33.792 71.441067 45.192533 151.637333 33.3824a581.870933 581.870933 0 0 0 41.198934-7.645866c-9.693867-38.280533-16.6912-79.854933-20.855467-123.886934-36.949333-26.043733-70.075733-53.384533-98.7648-81.493333z m320.836267 166.8608A740.7104 740.7104 0 0 0 640 735.232a729.617067 729.617067 0 0 0 17.5616-92.16 1054.208 1054.208 0 0 1-51.797333 31.402667 1226.154667 1226.154667 0 0 1-54.3744 29.627733z m-184.951467-60.194133c4.027733 31.829333 9.6768 62.088533 16.8448 90.402133a791.261867 791.261867 0 0 0 87.296-30.395733 1153.160533 1153.160533 0 0 1-52.462933-28.672 1060.3008 1060.3008 0 0 1-51.677867-31.3344z m-4.522667-44.066134a1002.4448 1002.4448 0 0 0 73.198934 45.806934 1092.522667 1092.522667 0 0 0 76.049066 40.311466 1159.68 1159.68 0 0 0 77.653334-41.1136 992.853333 992.853333 0 0 0 73.301333-45.858133A1053.696 1053.696 0 0 0 665.6 512c0-30.020267-0.938667-58.965333-2.781867-86.135467a1351.901867 1351.901867 0 0 0-74.1376-46.779733A1235.8656 1235.8656 0 0 0 512 338.8928a1224.891733 1224.891733 0 0 0-76.885333 40.311467 856.951467 856.951467 0 0 0-73.216 46.523733A1020.5696 1020.5696 0 0 0 358.4 512c0 30.139733 1.1776 59.630933 3.515733 87.842133z m-107.4688-86.9888a731.682133 731.682133 0 0 0 71.4752 61.149867 1152.938667 1152.938667 0 0 1-0.0512-122.2656 736.426667 736.426667 0 0 0-71.424 61.115733z m443.989334-61.371733C699.306667 471.022933 699.733333 491.264 699.733333 512c0 20.753067-0.546133 41.1136-1.621333 60.893867A804.590933 804.590933 0 0 0 769.365333 512a778.8032 778.8032 0 0 0-70.929066-60.5184zM253.610667 269.482667c-49.4592 0-81.8688 12.6976-96.324267 37.717333-19.950933 34.2016-4.317867 84.3264 46.4384 149.0432a919.2448 919.2448 0 0 0 27.221333 31.8464c28.637867-28.0064 61.627733-55.210667 98.3552-81.1008 4.164267-44.629333 11.195733-86.766933 20.923734-125.610667a583.168 583.168 0 0 0-41.250134-7.645866 404.8896 404.8896 0 0 0-55.364266-4.2496z m441.856 137.489066a838.997333 838.997333 0 0 1 97.450666 80.3328 742.365867 742.365867 0 0 0 27.374934-32.768c50.722133-63.658667 66.338133-113.186133 46.472533-147.268266-19.438933-34.116267-71.185067-45.653333-151.842133-34.3552-13.636267 1.9456-27.4432 4.642133-41.216 8.021333 9.813333 38.877867 17.134933 81.169067 21.76 126.037333z m-143.172267-86.254933a1299.831467 1299.831467 0 0 1 53.469867 28.8256 1413.290667 1413.290667 0 0 1 52.343466 32.273067 820.087467 820.087467 0 0 0-17.425066-92.16 742.058667 742.058667 0 0 0-88.388267 31.061333z m-168.96-31.044267a778.9568 778.9568 0 0 0-16.896 91.579734 916.411733 916.411733 0 0 1 51.780267-31.709867 1296.64 1296.64 0 0 1 53.469866-28.8256 736.341333 736.341333 0 0 0-88.354133-31.044267z m9.1648-32.887466c38.792533 10.820267 78.882133 25.7024 119.5008 44.3904 40.482133-18.619733 80.4352-33.467733 119.108267-44.288a756.974933 756.974933 0 0 0-14.660267-40.704C586.4448 140.6976 551.304533 102.4 512 102.4c-39.338667 0-74.786133 38.331733-105.352533 113.92-5.102933 12.970667-9.847467 26.538667-14.148267 40.465067z" p-id="767" fill="#2c2c2c"></path></svg>